<?xml version="1.0" standalone="no"?>
<!DOCTYPE svg PUBLIC "-//W3C//DTD SVG 20010904//EN"
 "http://www.w3.org/TR/2001/REC-SVG-20010904/DTD/svg10.dtd">
<svg version="1.0" xmlns="http://www.w3.org/2000/svg"
 width="301.000000pt" height="276.000000pt" viewBox="0 0 301.000000 276.000000"
 preserveAspectRatio="xMidYMid meet">

<g transform="translate(0.000000,276.000000) scale(0.100000,-0.100000)"
fill="#000000" stroke="none">
<path d="M1380 2649 c-338 -37 -645 -207 -859 -474 -306 -382 -363 -928 -143
-1366 180 -358 511 -607 910 -686 130 -25 356 -23 492 6 257 55 477 177 661
368 175 182 286 396 336 651 22 116 22 346 -1 464 -90 464 -415 836 -861 982
-153 51 -370 73 -535 55z m294 -495 c45 -9 84 -21 87 -26 5 -8 23 -13 89 -24
39 -7 53 -14 26 -14 -9 0 -14 -4 -11 -10 3 -5 1 -10 -4 -10 -6 0 -11 6 -11 13
0 8 -6 14 -14 14 -23 0 -11 -30 14 -34 13 -2 31 -9 39 -16 14 -11 14 -10 2 6
-8 9 -10 21 -6 25 4 4 10 1 12 -6 3 -6 8 -10 12 -8 4 3 22 -8 40 -24 18 -17
35 -30 39 -30 4 0 27 -18 52 -40 25 -22 48 -40 51 -40 3 0 15 -18 28 -40 12
-22 26 -40 32 -40 5 0 9 -8 10 -17 0 -15 2 -15 9 2 8 18 9 17 9 -7 1 -16 6
-28 12 -28 14 0 -19 -53 -114 -184 -81 -113 -101 -146 -77 -131 8 5 11 4 6 -3
-4 -6 -13 -9 -21 -5 -19 7 -19 -2 1 -31 10 -16 12 -26 4 -31 -7 -4 -5 -12 6
-22 25 -25 10 -123 -33 -213 -20 -41 -38 -69 -41 -62 -6 19 -42 -15 -42 -40 0
-22 -76 -100 -120 -123 -16 -8 -35 -12 -43 -9 -8 3 -17 -2 -20 -10 -4 -9 -11
-16 -18 -16 -6 0 -8 7 -5 16 3 8 2 13 -3 9 -5 -3 -12 1 -14 7 -3 7 -6 -40 -6
-104 -1 -152 3 -148 -149 -148 -64 0 -124 4 -131 9 -10 7 -17 35 -20 86 l-6
76 -35 -29 c-19 -16 -72 -55 -118 -86 -83 -56 -117 -71 -91 -40 11 14 10 15
-7 13 -11 -2 -32 8 -49 24 -17 16 -42 35 -58 43 -28 15 -36 39 -14 47 7 2 8 8
3 13 -5 5 -11 4 -13 -3 -7 -19 -30 -16 -37 4 -13 33 -31 63 -38 63 -5 0 -8 5
-8 11 0 6 -6 16 -12 24 -33 33 -47 55 -58 89 -6 20 -15 36 -19 36 -14 0 -53
189 -55 267 -2 137 25 279 66 335 14 21 18 33 10 36 -7 2 4 25 28 57 22 30 40
59 40 65 0 5 4 10 9 10 6 0 20 18 32 40 13 22 25 40 28 40 3 0 26 18 51 40 25
22 48 40 52 40 4 0 22 14 40 30 18 17 36 30 41 30 4 0 27 9 49 20 23 11 50 20
59 20 10 0 24 6 31 14 13 12 75 29 148 40 64 9 181 4 254 -10z"/>
<path d="M1638 2103 c7 -3 16 -2 19 1 4 3 -2 6 -13 5 -11 0 -14 -3 -6 -6z"/>
<path d="M1785 2090 c-3 -5 -1 -10 4 -10 6 0 11 5 11 10 0 6 -2 10 -4 10 -3 0
-8 -4 -11 -10z"/>
<path d="M1618 2083 c7 -3 16 -2 19 1 4 3 -2 6 -13 5 -11 0 -14 -3 -6 -6z"/>
<path d="M1890 2013 c0 -4 5 -15 10 -23 8 -13 10 -13 10 2 0 9 -4 20 -10 23
-5 3 -10 3 -10 -2z"/>
<path d="M2160 1789 c0 -5 5 -7 10 -4 6 3 10 8 10 11 0 2 -4 4 -10 4 -5 0 -10
-5 -10 -11z"/>
<path d="M1980 1350 c0 -5 5 -10 10 -10 6 0 10 5 10 10 0 6 -4 10 -10 10 -5 0
-10 -4 -10 -10z"/>
</g>
</svg>
