<?xml version="1.0" standalone="no"?>
<!DOCTYPE svg PUBLIC "-//W3C//DTD SVG 20010904//EN"
 "http://www.w3.org/TR/2001/REC-SVG-20010904/DTD/svg10.dtd">
<svg version="1.0" xmlns="http://www.w3.org/2000/svg"
 width="303.000000pt" height="293.000000pt" viewBox="0 0 303.000000 293.000000"
 preserveAspectRatio="xMidYMid meet">

<g transform="translate(0.000000,293.000000) scale(0.100000,-0.100000)"
fill="#000000" stroke="none">
<path d="M2165 2480 c-4 -6 -10 -8 -15 -5 -5 3 -12 0 -16 -6 -5 -8 -3 -9 7 -4
11 6 11 5 2 -5 -13 -14 -37 -4 -27 12 4 7 2 8 -5 4 -9 -6 -9 -11 -1 -21 9 -11
-22 -47 -144 -168 -86 -85 -156 -160 -156 -166 0 -6 12 -14 28 -17 114 -28
205 -102 259 -212 l38 -76 0 -380 c0 -374 0 -382 -23 -438 -45 -110 -124 -186
-236 -225 -45 -16 -91 -18 -416 -18 -327 0 -371 2 -421 18 -108 36 -212 142
-244 249 -8 27 -21 58 -29 70 l-16 22 -1 -29 c0 -25 -2 -26 -8 -10 -7 16 -9
14 -14 -13 -4 -19 -13 -32 -22 -32 -8 0 -15 -4 -15 -10 0 -8 -164 -174 -223
-225 -10 -9 -15 -20 -12 -24 2 -5 -2 -11 -10 -15 -8 -3 -15 0 -16 7 0 7 -4 3
-8 -8 -5 -12 -4 -26 3 -34 8 -11 8 -13 -1 -7 -41 24 29 -74 126 -177 373 -393
992 -498 1483 -251 181 91 375 261 487 428 345 511 273 1208 -166 1627 -93 88
-180 152 -188 139z"/>
<path d="M1662 1969 c-38 -15 -175 -157 -168 -175 3 -8 11 -14 18 -13 7 1 22
-1 33 -6 11 -4 34 -14 50 -20 122 -50 207 -182 207 -320 0 -94 -29 -170 -92
-238 -118 -129 -303 -151 -446 -54 -81 55 -154 183 -156 272 0 16 -2 15 -12
-7 -9 -22 -15 -25 -24 -16 -9 9 -12 9 -12 -1 0 -17 -109 -123 -120 -116 -4 3
-14 -18 -20 -46 -32 -131 38 -263 172 -324 l57 -26 328 3 c367 3 353 1 440 81
88 81 88 78 91 445 3 368 1 387 -70 467 -52 59 -126 97 -198 101 -30 1 -65 -2
-78 -7z m219 -118 c31 -31 36 -59 17 -94 -17 -33 -39 -46 -76 -47 -86 -1 -113
114 -37 158 33 19 65 13 96 -17z"/>
<path d="M1373 1631 c-18 -12 -33 -18 -33 -15 0 10 -80 -80 -81 -91 -1 -5 -1
-13 0 -17 0 -5 -3 -8 -8 -8 -5 0 -12 -18 -16 -40 -15 -88 48 -201 131 -236 49
-21 147 -18 193 5 153 78 163 293 20 388 -57 37 -158 44 -206 14z"/>
</g>
</svg>
