<?xml version="1.0" standalone="no"?>
<!DOCTYPE svg PUBLIC "-//W3C//DTD SVG 20010904//EN"
 "http://www.w3.org/TR/2001/REC-SVG-20010904/DTD/svg10.dtd">
<svg version="1.0" xmlns="http://www.w3.org/2000/svg"
 width="325.000000pt" height="294.000000pt" viewBox="0 0 325.000000 294.000000"
 preserveAspectRatio="xMidYMid meet">

<g transform="translate(0.000000,294.000000) scale(0.100000,-0.100000)"
fill="#000000" stroke="none">
<path d="M1583 2783 c9 -2 23 -2 30 0 6 3 -1 5 -18 5 -16 0 -22 -2 -12 -5z"/>
<path d="M1453 2773 c15 -2 39 -2 55 0 15 2 2 4 -28 4 -30 0 -43 -2 -27 -4z"/>
<path d="M1678 2773 c12 -2 32 -2 45 0 12 2 2 4 -23 4 -25 0 -35 -2 -22 -4z"/>
<path d="M1360 2760 c-13 -9 -13 -10 0 -10 8 0 22 5 30 10 13 9 13 10 0 10 -8
0 -22 -5 -30 -10z"/>
<path d="M1772 2753 c6 -7 18 -13 27 -13 13 0 13 2 2 9 -11 7 -10 10 5 14 10
2 5 4 -13 3 -24 -1 -29 -4 -21 -13z"/>
<path d="M1315 2750 c3 -5 11 -10 16 -10 6 0 7 5 4 10 -3 6 -11 10 -16 10 -6
0 -7 -4 -4 -10z"/>
<path d="M1270 2739 c0 -5 5 -7 10 -4 6 3 10 8 10 11 0 2 -4 4 -10 4 -5 0 -10
-5 -10 -11z"/>
<path d="M1240 2730 c0 -5 5 -10 11 -10 5 0 7 5 4 10 -3 6 -8 10 -11 10 -2 0
-4 -4 -4 -10z"/>
<path d="M1960 2726 c0 -2 7 -7 16 -10 8 -3 12 -2 9 4 -6 10 -25 14 -25 6z"/>
<path d="M1318 2713 c7 -3 16 -2 19 1 4 3 -2 6 -13 5 -11 0 -14 -3 -6 -6z"/>
<path d="M1824 2708 c9 -5 23 -5 32 0 12 6 7 9 -16 9 -23 0 -28 -3 -16 -9z"/>
<path d="M2027 2704 c-3 -3 -3 -13 0 -21 5 -11 8 -12 14 -2 6 10 11 10 22 0
11 -8 17 -9 22 -1 4 6 3 9 -2 8 -4 -1 -18 3 -29 10 -12 6 -24 9 -27 6z"/>
<path d="M1110 2690 c-12 -7 -12 -11 -2 -20 6 -5 10 -7 7 -4 -3 4 0 13 6 21
13 15 10 16 -11 3z"/>
<path d="M1051 2666 c-20 -11 -21 -14 -7 -19 12 -5 15 -3 10 5 -5 8 -2 9 10 5
9 -4 15 -3 11 2 -3 5 1 12 7 14 7 3 9 6 3 6 -5 0 -21 -6 -34 -13z"/>
<path d="M2110 2662 c22 -4 19 -7 -20 -18 -41 -11 -42 -12 -10 -10 50 5 75 16
58 27 -7 5 -22 8 -33 7 -15 0 -14 -2 5 -6z"/>
<path d="M2167 2639 c7 -7 15 -10 18 -7 3 3 -2 9 -12 12 -14 6 -15 5 -6 -5z"/>
<path d="M985 2630 c-3 -5 1 -10 10 -10 9 0 13 5 10 10 -3 6 -8 10 -10 10 -2
0 -7 -4 -10 -10z"/>
<path d="M2219 2608 c21 -24 41 -29 41 -11 0 4 -3 3 -7 0 -3 -4 -18 3 -32 15
l-26 23 24 -27z"/>
<path d="M946 2604 c-3 -8 -9 -13 -14 -11 -4 3 -15 -1 -25 -8 -17 -12 -16 -13
2 -18 14 -3 18 -1 14 9 -3 9 2 12 17 9 13 -2 20 -2 16 2 -3 3 -1 12 5 20 7 8
8 13 1 13 -5 0 -13 -7 -16 -16z"/>
<path d="M2271 2583 c-1 -13 16 -26 37 -29 6 -1 10 2 6 7 -3 5 -11 9 -19 9 -7
0 -16 6 -18 13 -4 9 -6 9 -6 0z"/>
<path d="M859 2553 c-13 -16 -12 -17 4 -4 9 7 17 15 17 17 0 8 -8 3 -21 -13z"/>
<path d="M760 2474 c-74 -64 -111 -100 -79 -76 9 6 20 8 24 4 5 -4 4 -1 0 7
-6 11 -4 13 11 7 10 -4 15 -4 11 0 -4 4 3 18 15 31 17 19 24 21 37 10 14 -10
14 -10 4 3 -10 13 -8 18 10 30 12 8 28 15 35 16 19 3 28 14 13 14 -7 0 -9 5
-6 10 11 17 2 11 -75 -56z"/>
<path d="M2370 2489 c-10 -18 -10 -19 8 -10 11 6 23 7 28 3 5 -4 2 1 -5 11
-17 22 -18 21 -31 -4z"/>
<path d="M840 2496 c0 -2 7 -7 16 -10 8 -3 12 -2 9 4 -6 10 -25 14 -25 6z"/>
<path d="M830 2470 c-9 -6 -10 -10 -3 -10 6 0 15 5 18 10 8 12 4 12 -15 0z"/>
<path d="M2390 2465 c0 -7 30 -13 34 -7 3 4 -4 9 -15 9 -10 1 -19 0 -19 -2z"/>
<path d="M2446 2425 c8 -12 11 -26 7 -30 -5 -5 0 -3 11 5 16 12 20 12 30 0 6
-8 20 -22 31 -30 11 -8 7 0 -10 18 -16 18 -35 30 -42 28 -11 -5 -17 5 -15 25
1 3 -5 6 -13 6 -11 0 -11 -4 1 -22z"/>
<path d="M2406 2432 c-3 -5 3 -17 13 -27 17 -15 19 -15 17 -1 -3 22 -22 40
-30 28z"/>
<path d="M714 2384 c-18 -14 -18 -15 4 -4 12 6 22 13 22 15 0 8 -5 6 -26 -11z"/>
<path d="M627 2342 c-20 -21 -37 -42 -37 -47 0 -5 7 1 16 13 8 12 21 19 27 16
7 -4 9 -3 4 1 -4 5 3 19 15 32 36 38 15 26 -25 -15z"/>
<path d="M669 2353 c-13 -16 -12 -17 4 -4 9 7 17 15 17 17 0 8 -8 3 -21 -13z"/>
<path d="M2498 2342 c-11 -15 -11 -15 3 -5 12 10 18 10 27 1 8 -8 12 -9 12 -1
0 19 -28 22 -42 5z"/>
<path d="M1520 2320 c-26 -6 -13 -8 48 -9 45 0 82 3 82 8 0 11 -77 11 -130 1z"/>
<path d="M1671 2321 c-10 -7 -8 -9 10 -9 13 0 35 -3 49 -6 16 -5 12 -1 -9 8
-39 19 -33 18 -50 7z"/>
<path d="M2554 2319 c-5 -8 -3 -9 5 -5 8 5 12 3 10 -5 -3 -28 1 -40 13 -33 8
5 9 2 5 -10 -4 -10 -7 -20 -7 -22 0 -3 -5 -2 -12 2 -7 5 -8 3 -3 -6 6 -10 11
-9 22 5 12 17 18 13 14 -8 -1 -5 3 -6 9 -2 6 4 17 3 23 -2 7 -4 4 0 -8 11 -11
10 -19 22 -18 27 2 4 -7 11 -19 14 -14 5 -17 10 -9 14 9 6 8 11 -3 20 -11 9
-16 9 -22 0z"/>
<path d="M646 2312 c-2 -4 4 -8 14 -8 10 0 16 4 14 8 -3 4 -9 8 -14 8 -5 0
-11 -4 -14 -8z"/>
<path d="M2485 2309 c-3 -4 2 -6 10 -5 21 3 28 13 10 13 -9 0 -18 -4 -20 -8z"/>
<path d="M1400 2303 c-14 -3 -29 -8 -34 -13 -7 -7 62 4 89 15 13 5 -23 3 -55
-2z"/>
<path d="M1805 2285 c28 -7 51 -12 53 -10 6 5 -61 25 -82 24 -12 0 2 -6 29
-14z"/>
<path d="M626 2277 c3 -10 9 -15 12 -12 3 3 0 11 -7 18 -10 9 -11 8 -5 -6z"/>
<path d="M1330 2279 c0 -5 5 -7 10 -4 6 3 10 8 10 11 0 2 -4 4 -10 4 -5 0 -10
-5 -10 -11z"/>
<path d="M1966 2282 c-2 -4 4 -8 14 -8 10 0 16 4 14 8 -3 4 -9 8 -14 8 -5 0
-11 -4 -14 -8z"/>
<path d="M567 2274 c-3 -3 -3 -13 0 -22 4 -10 2 -13 -5 -8 -12 7 -64 -62 -56
-76 3 -4 1 -8 -5 -8 -12 0 -46 -60 -34 -60 5 0 1 -5 -7 -11 -13 -9 -13 -10 0
-6 8 2 15 8 15 13 3 39 21 60 50 54 6 -1 5 4 -2 10 -17 18 22 80 48 75 16 -3
17 -1 9 14 -5 10 -6 21 -3 25 3 3 4 6 1 6 -2 0 -7 -3 -11 -6z"/>
<path d="M1206 2267 c3 -10 9 -15 12 -12 3 3 0 11 -7 18 -10 9 -11 8 -5 -6z"/>
<path d="M1238 2273 c7 -3 16 -2 19 1 4 3 -2 6 -13 5 -11 0 -14 -3 -6 -6z"/>
<path d="M1285 2260 c-3 -6 1 -7 9 -4 18 7 21 14 7 14 -6 0 -13 -4 -16 -10z"/>
<path d="M1880 2260 c8 -5 20 -10 25 -10 6 0 3 5 -5 10 -8 5 -19 10 -25 10 -5
0 -3 -5 5 -10z"/>
<path d="M1940 2261 c0 -7 -4 -9 -10 -6 -16 10 -11 -1 7 -16 14 -12 15 -12 9
0 -7 10 -4 12 12 7 12 -4 23 -2 28 5 4 8 3 9 -5 5 -6 -4 -18 -2 -26 4 -11 10
-15 10 -15 1z"/>
<path d="M603 2241 c0 -11 5 -18 9 -15 4 3 5 11 1 19 -7 21 -12 19 -10 -4z"/>
<path d="M1235 2249 c-3 -4 2 -6 10 -5 21 3 28 13 10 13 -9 0 -18 -4 -20 -8z"/>
<path d="M1199 2223 c-13 -16 -12 -17 4 -4 9 7 17 15 17 17 0 8 -8 3 -21 -13z"/>
<path d="M1978 2232 c-17 -7 -17 -8 0 -18 15 -10 18 -8 18 7 0 11 0 19 -1 18
0 0 -8 -4 -17 -7z"/>
<path d="M1122 2208 c-18 -18 -15 -27 7 -25 15 1 17 4 9 14 -13 16 4 17 19 2
8 -8 13 -7 18 2 5 7 4 10 -3 5 -6 -3 -13 -2 -17 4 -8 13 -18 13 -33 -2z"/>
<path d="M2017 2213 c-4 -3 -7 -11 -7 -17 0 -6 5 -5 12 2 6 6 9 14 7 17 -3 3
-9 2 -12 -2z"/>
<path d="M2647 2191 c-4 -17 -3 -21 5 -13 5 5 8 16 6 23 -3 8 -7 3 -11 -10z"/>
<path d="M1083 2195 c4 -5 0 -16 -9 -26 -8 -9 -17 -26 -19 -36 -1 -10 -7 -17
-12 -16 -5 1 -10 -5 -10 -13 0 -10 10 -6 31 13 16 16 36 34 44 41 7 6 9 12 4
12 -5 0 -15 -7 -22 -15 -7 -9 -15 -13 -18 -10 -3 3 3 13 12 24 14 15 15 21 4
27 -7 4 -10 3 -5 -1z"/>
<path d="M2670 2174 c0 -6 5 -15 12 -22 7 -7 9 -12 4 -12 -4 0 3 -15 16 -32
13 -18 22 -35 22 -38 -1 -3 5 -14 12 -25 8 -11 14 -14 14 -8 0 6 -7 19 -16 27
-8 9 -13 16 -9 16 3 0 -6 21 -21 48 -30 53 -34 59 -34 46z"/>
<path d="M963 2125 c0 -8 4 -12 9 -9 5 3 6 10 3 15 -9 13 -12 11 -12 -6z"/>
<path d="M2125 2113 c16 -18 33 -33 39 -33 5 0 1 7 -10 15 -19 14 -19 14 1 15
11 1 14 4 7 7 -6 2 -10 10 -6 16 3 7 -1 4 -9 -5 -13 -16 -15 -16 -33 0 -10 9
-6 2 11 -15z"/>
<path d="M1548 2123 c7 -3 16 -2 19 1 4 3 -2 6 -13 5 -11 0 -14 -3 -6 -6z"/>
<path d="M1597 2124 c-11 -11 3 -24 26 -23 21 1 20 2 -3 9 -20 7 -17 9 20 8
25 -1 52 -6 60 -12 13 -9 13 -8 3 5 -13 15 -93 26 -106 13z"/>
<path d="M2661 2104 c0 -11 3 -14 6 -6 3 7 2 16 -1 19 -3 4 -6 -2 -5 -13z"/>
<path d="M1410 2098 c0 -4 4 -8 9 -8 6 0 12 4 15 8 3 5 -1 9 -9 9 -8 0 -15 -4
-15 -9z"/>
<path d="M1755 2100 c-3 -5 -2 -10 4 -10 5 0 16 -3 25 -6 10 -4 16 -1 16 7 0
7 -3 9 -7 6 -3 -4 -12 -2 -19 4 -8 7 -14 7 -19 -1z"/>
<path d="M2680 2090 c0 -5 5 -10 11 -10 5 0 7 5 4 10 -3 6 -8 10 -11 10 -2 0
-4 -4 -4 -10z"/>
<path d="M1810 2080 c0 -6 7 -10 15 -10 8 0 15 2 15 4 0 2 -7 6 -15 10 -8 3
-15 1 -15 -4z"/>
<path d="M2200 2080 c0 -5 5 -10 11 -10 5 0 7 5 4 10 -3 6 -8 10 -11 10 -2 0
-4 -4 -4 -10z"/>
<path d="M1005 2070 c-4 -6 -11 -7 -17 -4 -7 4 -8 2 -4 -5 6 -9 11 -9 22 0 14
11 18 19 10 19 -3 0 -8 -5 -11 -10z"/>
<path d="M1300 2055 c-19 -14 -29 -25 -23 -25 5 0 20 9 33 20 12 11 27 17 33
13 6 -3 7 -1 3 5 -9 15 -7 16 -46 -13z"/>
<path d="M440 2059 c0 -5 5 -7 10 -4 6 3 10 8 10 11 0 2 -4 4 -10 4 -5 0 -10
-5 -10 -11z"/>
<path d="M963 2058 c4 -10 -1 -18 -15 -21 -15 -4 -19 -11 -15 -26 3 -11 0 -22
-7 -24 -6 -2 -8 -8 -3 -13 7 -7 32 20 37 41 1 6 6 15 10 20 5 6 4 17 -2 25 -8
13 -9 12 -5 -2z m-16 -50 c-3 -8 -6 -5 -6 6 -1 11 2 17 5 13 3 -3 4 -12 1 -19z"/>
<path d="M1857 2063 c-11 -11 3 -22 20 -16 12 5 15 2 10 -10 -4 -12 -2 -14 10
-10 11 4 14 2 9 -5 -4 -7 -2 -10 7 -6 8 3 14 -2 14 -11 0 -11 -7 -14 -21 -10
-19 5 -19 5 -3 -5 19 -12 41 -4 32 11 -10 16 13 10 31 -8 11 -11 16 -13 13 -4
-3 7 -23 24 -44 37 -22 13 -47 28 -56 33 -9 6 -19 8 -22 4z"/>
<path d="M2180 2061 c0 -10 19 -25 25 -20 1 2 -3 10 -11 17 -8 7 -14 8 -14 3z"/>
<path d="M421 2013 c-10 -26 -10 -27 4 -9 8 11 15 23 15 28 0 15 -7 8 -19 -19z"/>
<path d="M1855 2020 c10 -11 20 -20 23 -20 3 0 -3 9 -13 20 -10 11 -20 20 -23
20 -3 0 3 -9 13 -20z"/>
<path d="M1240 2006 c0 -2 8 -10 18 -17 15 -13 16 -12 3 4 -13 16 -21 21 -21
13z"/>
<path d="M2248 1977 c12 -13 19 -27 15 -32 -5 -4 -2 -5 5 -1 11 6 8 13 -9 32
-12 13 -25 24 -27 24 -3 0 4 -10 16 -23z"/>
<path d="M2760 1988 c0 -9 5 -20 10 -23 8 -5 7 -11 -1 -21 -7 -8 -7 -14 -1
-14 17 0 20 25 6 51 -10 17 -13 19 -14 7z"/>
<path d="M1996 1969 c9 -16 84 -85 84 -77 0 2 -21 24 -47 49 -26 24 -42 37
-37 28z"/>
<path d="M906 1943 c-6 -14 -5 -15 5 -6 7 7 10 15 7 18 -3 3 -9 -2 -12 -12z"/>
<path d="M1155 1950 c-3 -5 -1 -10 4 -10 6 0 11 5 11 10 0 6 -2 10 -4 10 -3 0
-8 -4 -11 -10z"/>
<path d="M386 1935 c-9 -26 -7 -32 5 -12 6 10 9 21 6 23 -2 3 -7 -2 -11 -11z"/>
<path d="M2292 1943 c-10 -4 -8 -9 5 -20 16 -13 16 -14 1 -9 -15 4 -16 2 -6
-20 13 -29 15 -28 21 13 6 35 0 43 -21 36z"/>
<path d="M1183 1925 c0 -8 4 -15 9 -15 4 0 8 4 8 9 0 6 -4 12 -8 15 -5 3 -9
-1 -9 -9z"/>
<path d="M881 1923 c4 -21 -2 -34 -13 -27 -7 4 -8 3 -4 -4 4 -6 -1 -23 -10
-36 -9 -14 -14 -30 -12 -35 1 -5 15 15 30 45 17 32 24 55 18 59 -6 4 -10 3 -9
-2z"/>
<path d="M1115 1910 c-10 -11 -14 -20 -9 -20 5 0 2 -5 -6 -10 -11 -7 -12 -10
-2 -10 8 0 16 9 19 21 3 11 11 18 19 15 8 -3 11 0 7 10 -7 18 -6 18 -28 -6z"/>
<path d="M1328 1903 c7 -3 16 -2 19 1 4 3 -2 6 -13 5 -11 0 -14 -3 -6 -6z"/>
<path d="M1245 1890 c-8 -13 15 -24 27 -12 6 6 4 11 -6 15 -8 3 -18 2 -21 -3z"/>
<path d="M1360 1895 c0 -2 6 -8 13 -14 10 -8 14 -7 14 2 0 8 -6 14 -14 14 -7
0 -13 -1 -13 -2z"/>
<path d="M1415 1890 c-3 -5 -1 -10 4 -10 6 0 11 5 11 10 0 6 -2 10 -4 10 -3 0
-8 -4 -11 -10z"/>
<path d="M1207 1870 c-3 -11 -3 -20 -1 -20 2 0 8 9 14 20 6 11 7 20 2 20 -6 0
-12 -9 -15 -20z"/>
<path d="M1072 1846 c-19 -30 -30 -56 -21 -50 6 3 14 17 20 31 5 13 13 22 18
18 5 -3 12 -2 15 3 8 13 -24 10 -32 -2z"/>
<path d="M1401 1840 c7 -14 12 -28 11 -32 -1 -5 3 -8 8 -8 15 0 12 12 -11 40
l-20 25 12 -25z"/>
<path d="M2320 1850 c0 -5 5 -10 11 -10 5 0 7 5 4 10 -3 6 -8 10 -11 10 -2 0
-4 -4 -4 -10z"/>
<path d="M2110 1831 c0 -6 4 -13 10 -16 6 -3 7 1 4 9 -7 18 -14 21 -14 7z"/>
<path d="M1086 1822 c-3 -5 1 -9 9 -9 8 0 12 4 9 9 -3 4 -7 8 -9 8 -2 0 -6 -4
-9 -8z"/>
<path d="M2342 1808 c2 -16 6 -24 11 -19 5 5 5 17 -2 28 -9 16 -10 15 -9 -9z"/>
<path d="M2827 1775 c3 -22 10 -49 15 -60 5 -13 6 -4 2 25 -3 25 -10 52 -15
60 -5 9 -6 -1 -2 -25z"/>
<path d="M826 1783 c-6 -14 -5 -15 5 -6 7 7 10 15 7 18 -3 3 -9 -2 -12 -12z"/>
<path d="M1065 1790 c-3 -5 -1 -10 4 -10 6 0 11 5 11 10 0 6 -2 10 -4 10 -3 0
-8 -4 -11 -10z"/>
<path d="M1190 1779 c-7 -11 -10 -23 -7 -25 2 -2 9 7 15 21 14 30 7 33 -8 4z"/>
<path d="M340 1781 c0 -5 5 -13 10 -16 6 -3 10 -2 10 4 0 5 -4 13 -10 16 -5 3
-10 2 -10 -4z"/>
<path d="M1443 1739 c7 -18 19 -35 27 -37 11 -4 11 0 -2 15 -10 11 -18 25 -18
31 0 6 -5 14 -10 17 -6 4 -5 -8 3 -26z"/>
<path d="M2140 1756 c0 -2 8 -10 18 -17 15 -13 16 -12 3 4 -13 16 -21 21 -21
13z"/>
<path d="M337 1736 c-4 -10 -7 -25 -6 -34 0 -11 4 -9 10 7 5 13 8 29 6 35 -2
5 -6 2 -10 -8z"/>
<path d="M1164 1741 c3 -4 8 -32 11 -62 3 -29 10 -58 17 -64 8 -7 9 -6 3 3 -4
7 -7 38 -7 67 -1 37 -5 56 -15 59 -8 3 -12 2 -9 -3z"/>
<path d="M2357 1729 c4 -13 8 -18 11 -10 2 7 -1 18 -6 23 -8 8 -9 4 -5 -13z"/>
<path d="M806 1713 c-4 -9 -9 -44 -11 -77 l-4 -61 8 52 c5 29 12 64 15 78 7
28 2 34 -8 8z"/>
<path d="M2170 1691 c0 -11 4 -22 9 -25 4 -3 6 6 3 19 -5 30 -12 33 -12 6z"/>
<path d="M2375 1698 c-3 -7 -1 -33 5 -58 l9 -45 -3 52 c-2 32 1 54 8 57 7 3 6
5 -2 5 -7 1 -15 -5 -17 -11z"/>
<path d="M1451 1667 c-13 -21 -12 -21 5 -5 10 10 16 20 13 22 -3 3 -11 -5 -18
-17z"/>
<path d="M992 1660 c0 -14 2 -19 5 -12 2 6 2 18 0 25 -3 6 -5 1 -5 -13z"/>
<path d="M321 1618 c1 -55 5 -50 11 15 2 20 0 37 -4 37 -4 0 -7 -24 -7 -52z"/>
<path d="M2853 1615 c0 -22 2 -30 4 -17 2 12 2 30 0 40 -3 9 -5 -1 -4 -23z"/>
<path d="M1414 1618 l-19 -23 23 19 c21 18 27 26 19 26 -2 0 -12 -10 -23 -22z"/>
<path d="M980 1621 c0 -6 4 -13 10 -16 6 -3 7 1 4 9 -7 18 -14 21 -14 7z"/>
<path d="M2185 1620 c3 -5 8 -10 11 -10 2 0 4 5 4 10 0 6 -5 10 -11 10 -5 0
-7 -4 -4 -10z"/>
<path d="M2194 1515 c1 -77 2 -84 10 -48 5 24 5 61 -1 90 -9 44 -9 41 -9 -42z"/>
<path d="M1401 1577 c-1 -21 21 -18 27 4 3 12 2 12 -6 0 -8 -11 -10 -11 -15 0
-4 10 -6 8 -6 -4z"/>
<path d="M2391 1564 c0 -11 3 -14 6 -6 3 7 2 16 -1 19 -3 4 -6 -2 -5 -13z"/>
<path d="M977 1553 c-10 -10 -8 -85 2 -79 4 3 8 24 8 46 0 43 0 44 -10 33z"/>
<path d="M312 1510 c0 -19 2 -27 5 -17 2 9 2 25 0 35 -3 9 -5 1 -5 -18z"/>
<path d="M1219 1521 c6 -10 7 -21 3 -25 -3 -4 1 -4 10 -1 15 6 15 8 0 26 -21
24 -26 24 -13 0z"/>
<path d="M1426 1528 c3 -5 10 -6 15 -3 13 9 11 12 -6 12 -8 0 -12 -4 -9 -9z"/>
<path d="M781 1514 c0 -11 3 -14 6 -6 3 7 2 16 -1 19 -3 4 -6 -2 -5 -13z"/>
<path d="M2862 1510 c0 -14 2 -19 5 -12 2 6 2 18 0 25 -3 6 -5 1 -5 -13z"/>
<path d="M747 1506 c-4 -10 -3 -15 3 -11 6 3 10 1 10 -6 0 -7 3 -10 6 -6 3 3
2 13 -4 22 -8 16 -9 16 -15 1z"/>
<path d="M1461 1504 c-1 -6 5 -17 12 -23 10 -8 14 -7 14 4 0 8 -4 12 -8 9 -4
-2 -10 2 -12 8 -4 8 -6 9 -6 2z"/>
<path d="M1262 1460 c7 -11 17 -20 22 -20 5 0 1 9 -9 20 -10 11 -20 20 -22 20
-2 0 2 -9 9 -20z"/>
<path d="M1500 1460 c-9 -6 -10 -10 -3 -10 6 0 15 5 18 10 8 12 4 12 -15 0z"/>
<path d="M981 1444 c0 -11 3 -14 6 -6 3 7 2 16 -1 19 -3 4 -6 -2 -5 -13z"/>
<path d="M2851 1444 c0 -11 3 -14 6 -6 3 7 2 16 -1 19 -3 4 -6 -2 -5 -13z"/>
<path d="M2382 1430 c0 -14 2 -19 5 -12 2 6 2 18 0 25 -3 6 -5 1 -5 -13z"/>
<path d="M323 1400 c0 -25 2 -35 4 -22 2 12 2 32 0 45 -2 12 -4 2 -4 -23z"/>
<path d="M792 1415 c0 -16 2 -22 5 -12 2 9 2 23 0 30 -3 6 -5 -1 -5 -18z"/>
<path d="M1575 1421 c-9 -15 15 -25 28 -12 9 9 7 10 -7 5 -13 -5 -17 -4 -12 4
4 7 5 12 2 12 -3 0 -7 -4 -11 -9z"/>
<path d="M1720 1405 c-11 -13 -10 -14 4 -9 9 3 16 10 16 15 0 13 -6 11 -20 -6z"/>
<path d="M2848 1395 c-6 -30 -3 -43 8 -33 3 4 4 19 2 35 l-3 28 -7 -30z"/>
<path d="M1000 1390 c6 -11 13 -20 16 -20 2 0 0 9 -6 20 -6 11 -13 20 -16 20
-2 0 0 -9 6 -20z"/>
<path d="M1317 1398 c13 -22 12 -40 -2 -34 -8 3 -17 1 -20 -3 -2 -5 6 -11 20
-13 14 -3 23 -1 22 6 -1 6 5 10 13 8 10 -2 6 6 -9 22 -26 28 -37 34 -24 14z"/>
<path d="M1800 1400 c-23 -8 -23 -8 7 -7 17 1 29 5 27 9 -3 4 -6 8 -7 7 -1 -1
-13 -5 -27 -9z"/>
<path d="M2177 1393 c3 -7 6 -13 8 -13 2 0 5 6 8 13 3 8 -1 14 -8 14 -7 0 -11
-6 -8 -14z"/>
<path d="M1755 1390 c3 -5 8 -10 11 -10 2 0 4 5 4 10 0 6 -5 10 -11 10 -5 0
-7 -4 -4 -10z"/>
<path d="M1876 1391 c-15 -6 -6 -11 39 -24 32 -9 61 -14 64 -12 2 3 -1 5 -8 5
-7 0 -9 5 -5 12 4 7 3 8 -5 4 -6 -4 -25 -4 -43 -1 -22 5 -27 9 -17 16 17 10 2
11 -25 0z"/>
<path d="M2376 1371 c-4 -7 -5 -15 -2 -18 9 -9 19 4 14 18 -4 11 -6 11 -12 0z"/>
<path d="M802 1350 c0 -14 2 -19 5 -12 2 6 2 18 0 25 -3 6 -5 1 -5 -13z"/>
<path d="M1618 1358 c20 -24 75 -45 80 -30 2 7 7 10 12 7 4 -3 13 2 20 10 9
10 9 15 1 15 -6 0 -11 -4 -11 -9 0 -10 -19 -9 -37 2 -6 4 -15 3 -18 -3 -5 -8
-16 -5 -33 6 -22 14 -25 14 -14 2z m67 -18 c3 -5 1 -10 -4 -10 -6 0 -11 5 -11
10 0 6 2 10 4 10 3 0 8 -4 11 -10z"/>
<path d="M1363 1333 c0 -9 9 -18 19 -21 10 -2 15 -9 11 -15 -3 -5 -1 -7 4 -4
6 4 24 -3 39 -15 l29 -22 -29 32 c-17 18 -39 32 -50 32 -15 0 -17 3 -8 9 11 7
11 9 0 14 -9 3 -15 -1 -15 -10z"/>
<path d="M2002 1334 c10 -10 20 -16 22 -13 3 3 -5 11 -17 18 -21 13 -21 12 -5
-5z"/>
<path d="M346 1321 c-10 -11 -16 -26 -13 -33 4 -8 6 -7 6 5 1 9 5 17 10 17 5
0 11 7 15 15 7 20 3 19 -18 -4z"/>
<path d="M2841 1324 c0 -11 3 -14 6 -6 3 7 2 16 -1 19 -3 4 -6 -2 -5 -13z"/>
<path d="M806 1303 c-6 -14 -5 -15 5 -6 7 7 10 15 7 18 -3 3 -9 -2 -12 -12z"/>
<path d="M2156 1293 c-6 -14 -5 -15 5 -6 7 7 10 15 7 18 -3 3 -9 -2 -12 -12z"/>
<path d="M2021 1282 c0 -13 -17 -43 -36 -67 -23 -27 -32 -46 -25 -50 6 -4 9
-3 8 2 -4 11 27 54 35 48 4 -3 5 -2 2 2 -9 12 16 32 33 26 11 -3 13 -2 6 4 -7
4 -14 19 -17 33 -4 24 -4 24 -6 2z"/>
<path d="M815 1280 c-3 -5 -1 -10 4 -10 6 0 11 5 11 10 0 6 -2 10 -4 10 -3 0
-8 -4 -11 -10z"/>
<path d="M2350 1281 c0 -5 5 -13 10 -16 6 -3 10 -2 10 4 0 5 -4 13 -10 16 -5
3 -10 2 -10 -4z"/>
<path d="M1030 1265 c0 -17 41 -78 48 -71 3 4 2 10 -4 14 -6 4 -18 21 -27 37
-9 17 -16 26 -17 20z"/>
<path d="M2086 1255 c-3 -9 1 -18 9 -21 8 -4 15 -13 15 -21 0 -8 5 -11 10 -8
6 4 8 10 5 15 -3 4 1 11 7 14 9 4 8 5 -2 5 -31 -2 -39 1 -34 16 4 8 4 15 1 15
-3 0 -8 -7 -11 -15z"/>
<path d="M2823 1233 c-6 -21 -10 -40 -8 -42 7 -6 26 51 23 66 -2 8 -8 -3 -15
-24z"/>
<path d="M1460 1250 c-9 -6 -10 -10 -3 -10 7 0 22 -10 34 -22 l21 -23 -16 33
c-19 36 -16 35 -36 22z"/>
<path d="M806 1227 c3 -10 9 -15 12 -12 3 3 0 11 -7 18 -10 9 -11 8 -5 -6z"/>
<path d="M831 1229 c-1 -9 7 -23 17 -30 15 -12 16 -12 6 1 -6 8 -14 22 -17 30
-5 13 -6 12 -6 -1z"/>
<path d="M350 1216 c0 -8 4 -17 9 -20 5 -4 7 3 4 14 -6 23 -13 26 -13 6z"/>
<path d="M2330 1221 c0 -5 5 -13 10 -16 6 -3 10 -2 10 4 0 5 -4 13 -10 16 -5
3 -10 2 -10 -4z"/>
<path d="M1460 1210 c0 -5 -1 -13 -2 -17 -2 -3 5 -7 15 -9 14 -2 15 1 8 10 -6
7 -8 16 -4 19 3 4 1 7 -5 7 -7 0 -12 -4 -12 -10z"/>
<path d="M1543 1196 c0 -6 9 -13 19 -13 10 -1 18 0 18 2 0 2 -8 9 -18 14 -14
7 -19 6 -19 -3z"/>
<path d="M831 1174 c0 -11 3 -14 6 -6 3 7 2 16 -1 19 -3 4 -6 -2 -5 -13z"/>
<path d="M368 1169 c7 -9 10 -25 6 -35 -5 -18 -5 -18 6 0 10 15 9 21 -6 35
-16 14 -17 14 -6 0z"/>
<path d="M1598 1173 c6 -2 10 -9 7 -14 -4 -5 1 -6 9 -3 9 3 16 1 16 -6 0 -6 5
-8 11 -4 12 7 -26 34 -46 33 -5 0 -4 -3 3 -6z"/>
<path d="M2036 1171 c-4 -5 -2 -12 3 -15 5 -4 12 -2 15 3 4 5 2 12 -3 15 -5 4
-12 2 -15 -3z"/>
<path d="M862 1156 c7 -8 15 -12 17 -11 5 6 -10 25 -20 25 -5 0 -4 -6 3 -14z"/>
<path d="M1095 1160 c-3 -5 -1 -10 4 -10 6 0 11 5 11 10 0 6 -2 10 -4 10 -3 0
-8 -4 -11 -10z"/>
<path d="M2075 1159 c3 -4 -2 -10 -11 -13 -9 -4 -14 -9 -10 -13 3 -3 -2 -16
-11 -27 -18 -21 -18 -21 5 -2 12 11 20 21 17 24 -2 2 5 12 17 22 17 13 18 17
5 17 -9 0 -14 -4 -12 -8z"/>
<path d="M1060 1140 c0 -11 2 -20 4 -20 2 0 6 9 9 20 3 11 1 20 -4 20 -5 0 -9
-9 -9 -20z"/>
<path d="M1916 1150 c-18 -6 -18 -7 4 -13 14 -3 28 -3 33 2 12 12 -14 20 -37
11z"/>
<path d="M854 1123 c1 -19 5 -28 10 -23 6 6 5 18 -1 32 -10 21 -10 21 -9 -9z"/>
<path d="M820 1130 c0 -5 5 -10 11 -10 5 0 7 5 4 10 -3 6 -8 10 -11 10 -2 0
-4 -4 -4 -10z"/>
<path d="M1873 1132 c-7 -5 -3 -11 13 -19 16 -7 24 -8 24 -1 0 6 8 4 18 -3 15
-13 16 -12 3 3 -7 10 -18 15 -23 12 -6 -4 -13 -2 -17 4 -4 6 -12 8 -18 4z"/>
<path d="M2796 1125 c-3 -9 -6 -22 -5 -28 0 -7 5 -1 10 12 5 13 8 26 5 28 -2
2 -6 -3 -10 -12z"/>
<path d="M1721 1125 c9 -8 128 -11 123 -3 -3 4 -33 8 -66 8 -34 0 -59 -2 -57
-5z"/>
<path d="M1955 1120 c-3 -5 -1 -10 4 -10 6 0 11 5 11 10 0 6 -2 10 -4 10 -3 0
-8 -4 -11 -10z"/>
<path d="M1986 1114 c-8 -22 -4 -25 11 -9 7 8 9 16 4 19 -5 3 -12 -1 -15 -10z"/>
<path d="M2280 1111 c0 -6 4 -13 10 -16 6 -3 7 1 4 9 -7 18 -14 21 -14 7z"/>
<path d="M380 1104 c0 -6 7 -19 15 -30 8 -10 14 -14 14 -9 0 6 -6 19 -14 29
-8 11 -15 15 -15 10z"/>
<path d="M1056 1098 c3 -5 10 -6 15 -3 13 9 11 12 -6 12 -8 0 -12 -4 -9 -9z"/>
<path d="M830 1091 c0 -7 7 -19 15 -27 19 -20 19 -5 0 20 -9 11 -15 14 -15 7z"/>
<path d="M1956 1073 c-6 -14 -5 -15 5 -6 7 7 10 15 7 18 -3 3 -9 -2 -12 -12z"/>
<path d="M1046 1065 c-9 -26 -7 -32 5 -12 6 10 9 21 6 23 -2 3 -7 -2 -11 -11z"/>
<path d="M2239 1048 c-13 -18 -27 -35 -31 -36 -5 -2 -13 -13 -20 -25 -10 -20
-8 -19 14 3 28 28 72 90 64 90 -2 0 -15 -15 -27 -32z"/>
<path d="M2286 1068 c3 -5 10 -6 15 -3 13 9 11 12 -6 12 -8 0 -12 -4 -9 -9z"/>
<path d="M2764 1068 c3 -10 -2 -24 -10 -32 -8 -9 -15 -18 -14 -21 0 -3 0 -6
-1 -7 0 -2 -2 -16 -4 -33 l-4 -30 16 29 c8 16 16 34 17 40 1 6 8 22 15 34 7
13 10 26 7 30 -3 3 -6 -1 -6 -9 0 -12 -2 -11 -11 1 -9 13 -10 12 -5 -2z"/>
<path d="M1986 1054 c-5 -14 -4 -15 9 -4 17 14 19 20 6 20 -5 0 -12 -7 -15
-16z"/>
<path d="M413 1036 c4 -6 7 -18 7 -29 0 -11 4 -15 12 -11 7 5 9 2 6 -8 -4 -8
-3 -21 2 -27 5 -9 8 -4 8 12 0 14 -10 36 -22 49 -11 13 -18 19 -13 14z"/>
<path d="M462 1030 c0 -14 2 -19 5 -12 2 6 2 18 0 25 -3 6 -5 1 -5 -13z"/>
<path d="M820 1040 c0 -6 7 -10 15 -10 8 0 15 2 15 4 0 2 -7 6 -15 10 -8 3
-15 1 -15 -4z"/>
<path d="M1940 1020 c-9 -6 -10 -10 -3 -10 6 0 15 5 18 10 8 12 4 12 -15 0z"/>
<path d="M828 997 c4 -14 7 -16 13 -5 12 19 11 25 -5 25 -8 0 -11 -8 -8 -20z"/>
<path d="M1031 1005 c-1 -11 -4 -31 -6 -45 l-6 -25 11 25 c6 13 9 33 7 45 -4
19 -4 19 -6 0z"/>
<path d="M1260 1004 c-22 -9 -26 -12 -10 -10 13 3 31 -1 40 -8 13 -12 17 -12
29 2 13 14 12 15 -8 9 -17 -4 -21 -2 -17 9 3 8 4 14 3 13 -1 0 -18 -7 -37 -15z"/>
<path d="M1856 1001 c-3 -5 2 -15 12 -22 15 -13 16 -12 3 4 -8 10 -9 17 -3 17
6 0 13 -4 17 -10 7 -11 35 -2 35 12 0 6 -6 6 -14 -1 -10 -8 -16 -9 -21 -1 -8
12 -22 13 -29 1z"/>
<path d="M1163 985 c0 -8 4 -15 9 -15 4 0 8 4 8 9 0 6 -4 12 -8 15 -5 3 -9 -1
-9 -9z"/>
<path d="M1197 989 c7 -7 15 -10 18 -7 3 3 -2 9 -12 12 -14 6 -15 5 -6 -5z"/>
<path d="M1800 989 c0 -5 10 -9 23 -9 20 -1 21 -2 5 -14 -20 -15 -25 -31 -5
-19 6 4 15 8 20 9 4 1 10 2 13 3 4 0 1 7 -5 15 -14 17 -51 28 -51 15z"/>
<path d="M2210 979 c0 -5 5 -7 10 -4 6 3 10 8 10 11 0 2 -4 4 -10 4 -5 0 -10
-5 -10 -11z"/>
<path d="M1101 969 c-18 -6 -31 -12 -29 -14 5 -5 78 14 78 20 0 6 -8 5 -49 -6z"/>
<path d="M1320 969 c0 -6 4 -8 9 -5 5 4 11 1 13 -6 3 -8 6 -7 10 3 4 10 -1 15
-13 16 -10 1 -19 -3 -19 -8z"/>
<path d="M2149 943 c-13 -16 -12 -17 4 -4 16 13 21 21 13 21 -2 0 -10 -8 -17
-17z"/>
<path d="M1360 946 c0 -2 9 -6 20 -9 11 -3 18 -1 14 4 -5 9 -34 13 -34 5z"/>
<path d="M1775 940 c-3 -5 -1 -10 4 -10 6 0 11 5 11 10 0 6 -2 10 -4 10 -3 0
-8 -4 -11 -10z"/>
<path d="M1415 930 c4 -6 13 -9 21 -6 7 3 16 1 19 -4 4 -6 11 -10 18 -10 21 0
-9 21 -37 26 -19 3 -25 1 -21 -6z"/>
<path d="M1676 917 c9 -5 32 -4 52 1 37 9 36 9 -15 8 -33 -1 -46 -4 -37 -9z"/>
<path d="M2696 922 c-3 -5 1 -9 9 -9 8 0 12 4 9 9 -3 4 -7 8 -9 8 -2 0 -6 -4
-9 -8z"/>
<path d="M1588 908 c-8 -4 4 -8 30 -8 23 0 42 2 42 4 0 8 -60 12 -72 4z"/>
<path d="M2129 907 c6 -8 7 -18 3 -22 -4 -5 -1 -5 6 -1 10 6 10 11 1 22 -6 8
-14 14 -16 14 -3 0 0 -6 6 -13z"/>
<path d="M2085 890 c-17 -18 -17 -20 -2 -14 9 3 17 10 17 16 0 5 5 6 12 2 7
-4 8 -3 4 4 -9 16 -10 15 -31 -8z"/>
<path d="M485 882 c10 -13 20 -29 21 -37 2 -16 42 -75 51 -75 3 0 1 6 -6 13
-8 10 -7 17 2 27 9 10 9 11 -1 5 -20 -11 -44 26 -29 45 6 8 7 12 2 7 -4 -4
-20 3 -34 15 l-26 23 20 -23z"/>
<path d="M811 874 c0 -11 3 -14 6 -6 3 7 2 16 -1 19 -3 4 -6 -2 -5 -13z"/>
<path d="M2046 862 c-3 -5 1 -9 9 -9 8 0 12 4 9 9 -3 4 -7 8 -9 8 -2 0 -6 -4
-9 -8z"/>
<path d="M2657 843 c4 -9 2 -14 -3 -10 -5 3 -10 -3 -10 -14 0 -24 0 -24 19 5
14 20 14 25 2 30 -10 3 -12 0 -8 -11z"/>
<path d="M2040 836 c0 -2 7 -7 16 -10 8 -3 12 -2 9 4 -6 10 -25 14 -25 6z"/>
<path d="M1964 809 c-3 -6 -2 -15 3 -20 5 -5 9 -1 10 11 2 22 -2 25 -13 9z"/>
<path d="M2000 800 c-8 -5 -10 -10 -5 -10 6 0 17 5 25 10 8 5 11 10 5 10 -5 0
-17 -5 -25 -10z"/>
<path d="M2057 799 c7 -7 15 -10 18 -7 3 3 -2 9 -12 12 -14 6 -15 5 -6 -5z"/>
<path d="M1206 791 c-3 -4 6 -7 19 -5 14 1 35 -6 47 -15 13 -10 37 -21 53 -25
l30 -8 -27 -14 c-16 -8 -28 -17 -28 -20 0 -2 13 2 29 11 19 9 32 11 36 5 3 -6
12 -10 18 -10 7 0 6 4 -3 10 -11 7 -11 10 -2 10 7 0 10 5 7 11 -4 6 -12 8 -19
6 -6 -3 -20 1 -30 8 -10 8 -24 11 -32 8 -8 -3 -14 -1 -14 5 0 18 -75 39 -84
23z"/>
<path d="M1935 790 c3 -5 8 -10 11 -10 2 0 4 5 4 10 0 6 -5 10 -11 10 -5 0 -7
-4 -4 -10z"/>
<path d="M1155 780 c-13 -6 -15 -9 -5 -9 8 0 22 4 30 9 18 12 2 12 -25 0z"/>
<path d="M2626 783 c-4 -5 -12 -9 -17 -9 -5 -1 -13 -2 -19 -3 -5 0 -9 -7 -7
-13 1 -7 -4 -12 -11 -10 -8 1 -11 -2 -6 -9 5 -9 12 -6 25 9 9 12 19 18 21 12
2 -6 9 -1 16 10 12 20 12 26 -2 13z"/>
<path d="M1085 760 c-3 -5 -2 -10 4 -10 5 0 13 5 16 10 3 6 2 10 -4 10 -5 0
-13 -4 -16 -10z"/>
<path d="M1845 760 c-13 -6 -15 -9 -5 -9 8 0 22 4 30 9 18 12 2 12 -25 0z"/>
<path d="M560 756 c0 -2 6 -9 14 -15 10 -9 15 -8 19 2 3 8 -3 13 -14 14 -10 1
-19 0 -19 -1z"/>
<path d="M1025 750 c-16 -7 -17 -9 -3 -9 9 -1 20 4 23 9 7 11 7 11 -20 0z"/>
<path d="M1400 729 c0 -5 5 -7 10 -4 6 3 10 8 10 11 0 2 -4 4 -10 4 -5 0 -10
-5 -10 -11z"/>
<path d="M1758 733 c7 -3 16 -2 19 1 4 3 -2 6 -13 5 -11 0 -14 -3 -6 -6z"/>
<path d="M596 721 c-3 -4 5 -18 18 -30 18 -17 26 -19 31 -10 6 8 4 10 -5 4
-10 -6 -12 -4 -7 8 3 9 1 19 -5 23 -7 5 -8 2 -3 -6 5 -8 3 -11 -6 -8 -8 3 -13
11 -11 17 2 13 -5 15 -12 2z"/>
<path d="M895 720 c-27 -7 -28 -8 -5 -8 14 0 34 3 45 8 25 11 2 11 -40 0z"/>
<path d="M1468 723 c7 -3 16 -2 19 1 4 3 -2 6 -13 5 -11 0 -14 -3 -6 -6z"/>
<path d="M1685 720 l-20 -9 20 0 c11 0 29 4 40 9 l20 9 -20 0 c-11 0 -29 -4
-40 -9z"/>
<path d="M1528 713 c6 -2 18 -2 25 0 6 3 1 5 -13 5 -14 0 -19 -2 -12 -5z"/>
<path d="M1588 713 c12 -2 30 -2 40 0 9 3 -1 5 -23 4 -22 0 -30 -2 -17 -4z"/>
<path d="M2563 706 c1 -6 -6 -10 -15 -10 -10 1 -16 -1 -13 -5 2 -4 -5 -23 -17
-42 -22 -37 -19 -35 35 27 22 25 31 41 22 41 -8 0 -13 -5 -12 -11z"/>
<path d="M828 703 c6 -2 18 -2 25 0 6 3 1 5 -13 5 -14 0 -19 -2 -12 -5z"/>
<path d="M680 682 c-14 -9 -26 -22 -27 -28 -3 -15 82 -94 101 -94 19 0 30 17
16 25 -6 4 -7 12 -4 18 4 7 3 8 -2 4 -5 -5 -10 -13 -10 -18 -1 -5 -2 -11 -3
-15 0 -3 -17 7 -36 22 -19 14 -33 30 -30 34 3 5 1 11 -5 15 -5 3 -10 11 -10
17 0 6 10 3 23 -8 12 -10 17 -12 10 -5 -13 16 -6 44 10 34 6 -3 7 -1 3 5 -9
15 -6 15 -36 -6z"/>
<path d="M2442 615 c4 -4 2 -17 -3 -28 -9 -16 -13 -17 -21 -6 -6 10 -7 7 -3
-10 6 -18 4 -22 -6 -16 -8 5 -11 4 -6 0 4 -5 -1 -18 -10 -30 -10 -11 -1 -4 19
16 20 20 39 35 41 33 2 -2 12 6 23 18 10 13 15 20 10 16 -5 -4 -18 -2 -30 4
-11 6 -18 7 -14 3z"/>
<path d="M785 540 c-8 -12 2 -30 17 -30 7 0 7 4 -1 13 -6 8 -8 17 -4 20 3 4 4
7 0 7 -3 0 -9 -4 -12 -10z"/>
<path d="M836 528 c3 -4 11 -5 19 -1 21 7 19 12 -4 10 -11 0 -18 -5 -15 -9z"/>
<path d="M2346 515 c-14 -11 -16 -15 -5 -15 12 0 12 -2 -1 -11 -13 -9 -13 -10
0 -6 8 2 15 8 15 13 0 5 4 15 8 22 10 15 7 15 -17 -3z"/>
<path d="M820 501 c0 -5 7 -11 14 -14 10 -4 13 -1 9 9 -6 15 -23 19 -23 5z"/>
<path d="M915 450 c-4 -6 -12 -7 -18 -4 -8 5 -9 4 -2 -3 6 -6 37 -25 70 -43
49 -27 56 -29 41 -11 -11 11 -26 21 -35 22 -12 0 -11 3 4 10 17 8 17 9 -5 5
-30 -6 -55 7 -46 23 4 6 5 11 2 11 -3 0 -8 -5 -11 -10z"/>
<path d="M2210 446 c4 -4 16 -4 26 2 16 9 14 10 -8 9 -15 -1 -23 -6 -18 -11z"/>
<path d="M2189 418 c-9 -30 -6 -37 12 -27 11 5 17 14 14 20 -6 8 -24 13 -26 7z"/>
<path d="M1030 371 c0 -10 100 -55 107 -47 3 3 -6 8 -21 12 -14 3 -23 11 -19
17 3 6 1 7 -6 3 -6 -4 -23 0 -36 8 -14 9 -25 12 -25 7z"/>
<path d="M2121 361 c-8 -5 -23 -8 -34 -5 -11 2 -17 1 -14 -3 4 -3 -1 -12 -11
-19 -15 -12 -15 -12 6 -7 12 3 22 10 22 15 0 5 3 7 8 4 4 -2 18 2 32 10 14 7
21 13 15 13 -5 1 -16 -3 -24 -8z"/>
<path d="M1980 305 c-14 -8 -20 -14 -14 -15 5 0 19 7 30 15 24 18 16 19 -16 0z"/>
<path d="M1810 296 c0 -2 7 -7 16 -10 8 -3 12 -2 9 4 -6 10 -25 14 -25 6z"/>
<path d="M1925 290 c-3 -5 -2 -10 4 -10 5 0 13 5 16 10 3 6 2 10 -4 10 -5 0
-13 -4 -16 -10z"/>
<path d="M1277 279 c7 -7 15 -10 18 -7 3 3 -2 9 -12 12 -14 6 -15 5 -6 -5z"/>
<path d="M1885 280 c4 -6 11 -8 16 -5 14 9 11 15 -7 15 -8 0 -12 -5 -9 -10z"/>
<path d="M1758 273 c6 -2 10 -9 7 -14 -4 -5 1 -6 10 -2 13 5 14 7 3 14 -7 5
-17 8 -23 8 -5 0 -4 -3 3 -6z"/>
<path d="M1318 263 c7 -3 16 -2 19 1 4 3 -2 6 -13 5 -11 0 -14 -3 -6 -6z"/>
<path d="M1360 260 c20 -13 43 -13 35 0 -3 6 -16 10 -28 10 -18 0 -19 -2 -7
-10z"/>
<path d="M1810 260 c-8 -5 -10 -10 -5 -10 6 0 17 5 25 10 8 5 11 10 5 10 -5 0
-17 -5 -25 -10z"/>
<path d="M1455 250 c3 -5 21 -10 38 -9 31 1 31 1 7 9 -36 11 -52 11 -45 0z"/>
<path d="M1663 243 c15 -2 39 -2 55 0 15 2 2 4 -28 4 -30 0 -43 -2 -27 -4z"/>
<path d="M1583 233 c9 -2 23 -2 30 0 6 3 -1 5 -18 5 -16 0 -22 -2 -12 -5z"/>
</g>
</svg>
