<svg width="12" height="12" fill="none" xmlns="http://www.w3.org/2000/svg"><path d="M10.918 5.061c.32 0 .577.103.77.31.208.19.312.443.312.76a.951.951 0 01-.313.736c-.192.19-.448.285-.77.285H7.215v3.636c0 .349-.112.642-.336.88-.225.221-.521.332-.89.332-.353 0-.65-.11-.89-.333a1.232 1.232 0 01-.336-.879V7.152h-3.68c-.304 0-.561-.102-.77-.308A1.027 1.027 0 010 6.084c0-.302.096-.547.289-.737.208-.19.473-.286.793-.286h3.68V1.188c0-.348.112-.634.336-.855.24-.222.537-.333.89-.333.369 0 .665.11.89.333.224.221.336.507.336.855v3.873h3.704z" fill="#E5E5E5"/></svg>